<svg xmlns="http://www.w3.org/2000/svg" width="39.987" height="35.981"><path fill="#FFF" fill-rule="evenodd" d="M14.558 0a2.166 2.166 0 0 0-2.15 1.739h-.056L5.295 9.58h3.529l4.881-5.417c.263.11.552.192.853.192.307 0 .59-.082.858-.192l4.876 5.417h3.535l-7.063-7.841h-.056C16.515.735 15.636 0 14.558 0zM1.767 11.32C.788 11.32 0 12.099 0 13.065v.87c0 .92.715 1.643 1.629 1.715l2.783 9.607C5.295 27 6.179 27 7.057 27h15.886c.884 0 1.761 0 2.645-1.743l2.788-9.607c.909-.072 1.624-.795 1.624-1.715v-.87c0-.966-.784-1.745-1.762-1.745H1.767zm4.963 4.355h.439c.979 0 1.944.728 2.15 1.633l1.241 5.419c.207.91-.426 1.658-1.404 1.658h-.445c-.977 0-1.942-.748-2.149-1.658l-1.241-5.419c-.206-.905.431-1.633 1.409-1.633zm8.273 0c.977 0 1.761.779 1.761 1.744v5.226c0 .966-.784 1.74-1.761 1.74a1.748 1.748 0 0 1-1.767-1.74v-5.226c0-.965.788-1.744 1.767-1.744zm7.828 0h.444c.978 0 1.61.728 1.404 1.633l-1.241 5.419c-.207.91-1.171 1.658-2.15 1.658h-.444c-.977 0-1.61-.748-1.404-1.658l1.241-5.419c.207-.905 1.171-1.633 2.15-1.633z"/></svg>